<?xml version="1.0" encoding="iso-8859-1"?>
<!-- Generator: Adobe Illustrator 19.0.0, SVG Export Plug-In . SVG Version: 6.00 Build 0)  -->
<svg version="1.1" id="Layer_1" xmlns="http://www.w3.org/2000/svg" xmlns:xlink="http://www.w3.org/1999/xlink" x="0px" y="0px"
	 viewBox="0 0 511.999 511.999" style="enable-background:new 0 0 511.999 511.999;" xml:space="preserve">
<g>
	<polygon style="fill:#F95428;" points="344.817,197.214 28.705,197.214 12.245,197.214 12.245,125.62 361.276,125.62 
		361.276,197.214 	"/>
	<rect x="28.705" y="197.208" style="fill:#F95428;" width="316.112" height="175.544"/>
</g>
<rect x="28.705" y="197.208" style="fill:#E54728;" width="316.112" height="29.392"/>
<path style="fill:#666666;" d="M187.798,90.631h-2.075c-12.652,0-22.91,10.257-22.91,22.91v259.216h47.894V113.541
	C210.708,100.888,200.451,90.631,187.798,90.631z"/>
<g>
	<path style="fill:#E6E6E6;" d="M499.75,372.759v42.704h-39.692h-0.012c-5.462-24.444-27.261-42.704-53.322-42.704h78.514H499.75z"
		/>
	<path style="fill:#E6E6E6;" d="M406.724,372.759c-26.049,0-47.848,18.26-53.31,42.704h-0.012H183.356
		c-5.438-24.444-27.261-42.704-53.334-42.704h24.971H303.46h41.357H406.724z"/>
	<path style="fill:#E6E6E6;" d="M20.99,372.759h109.032c-26.061,0-47.885,18.26-53.322,42.704H20.99
		C20.99,415.463,20.99,372.759,20.99,372.759z"/>
	<polygon style="fill:#E6E6E6;" points="451.963,219.601 485.237,305.365 390.509,305.365 390.509,219.601 	"/>
</g>
<g>
	<path style="fill:#666666;" d="M406.724,372.759c26.061,0,47.86,18.26,53.322,42.704c0.87,3.858,1.323,7.875,1.323,12.002
		c0,30.213-24.469,54.694-54.645,54.694c-30.164,0-54.632-24.481-54.632-54.694c0-4.127,0.453-8.144,1.323-12.002
		C358.876,391.018,380.675,372.759,406.724,372.759z"/>
	<path style="fill:#666666;" d="M183.356,415.463c0.857,3.833,1.31,7.826,1.31,11.928c0,30.176-24.469,54.632-54.645,54.632
		c-30.164,0-54.633-24.457-54.633-54.632c0-4.103,0.453-8.095,1.31-11.928c5.438-24.444,27.261-42.704,53.322-42.704
		C156.095,372.759,177.919,391.018,183.356,415.463z"/>
	<polygon style="fill:#666666;" points="485.237,305.365 485.237,372.759 406.724,372.759 344.817,372.759 344.817,219.601 
		390.509,219.601 390.509,305.365 	"/>
</g>
<path style="fill:#F9A493;" d="M307.483,345.469c-6.763,0-12.247-5.483-12.247-12.247V256c0-6.764,5.484-12.247,12.247-12.247
	s12.247,5.483,12.247,12.247v77.223C319.729,339.986,314.246,345.469,307.483,345.469z"/>
<g>
	<path style="fill:#333333;" d="M499.753,360.507h-2.264v-55.138c0-1.515-0.28-3.018-0.83-4.431l-33.284-85.768
		c-1.827-4.711-6.362-7.816-11.416-7.816h-83.821c3.249-2.202,5.384-5.924,5.384-10.144v-71.587c0-6.764-5.484-12.247-12.247-12.247
		h-87.858c4.769-4.136,9.02-8.749,12.712-13.861c23.023-31.874,15.525-70.488,15.193-72.116c-0.665-3.276-2.639-6.138-5.467-7.922
		c-2.828-1.783-6.259-2.333-9.506-1.523c-31.75,7.937-57.035,28.93-73.125,60.709c-1.271,2.511-2.431,4.992-3.499,7.426
		c-6.017-4.817-13.639-7.706-21.926-7.706h-2.075c-8.289,0-15.911,2.89-21.928,7.707c-1.069-2.436-2.229-4.917-3.499-7.428
		c-16.088-31.779-41.374-52.772-73.125-60.709c-3.244-0.811-6.677-0.261-9.506,1.523c-2.828,1.784-4.802,4.645-5.467,7.922
		c-0.332,1.628-7.829,40.243,15.193,72.116c3.692,5.113,7.943,9.725,12.712,13.861H12.247C5.484,113.376,0,118.859,0,125.623v71.587
		c0,6.764,5.484,12.247,12.247,12.247h4.217V361.38c-4.523,1.8-7.724,6.209-7.724,11.373v42.705c0,6.764,5.484,12.247,12.247,12.247
		h42.167c0.17,36.734,30.101,66.567,66.873,66.567s66.702-29.833,66.873-66.567h142.954c0.134,36.804,30.079,66.705,66.874,66.705
		s66.742-29.902,66.874-66.705h26.15c6.763,0,12.247-5.483,12.247-12.247v-42.705C512,365.991,506.517,360.507,499.753,360.507z
		 M181.719,385.004h173.339c-4.454,5.423-8.061,11.563-10.65,18.208H192.366C189.778,396.567,186.173,390.427,181.719,385.004z
		 M175.06,137.871h23.4v47.093h-23.4V137.871z M198.461,209.457v151.051h-23.4V209.457L198.461,209.457L198.461,209.457z
		 M332.565,219.6v140.907h-109.61V209.456h109.61V219.6z M357.059,360.507v-128.66h21.209v73.522
		c0,6.764,5.484,12.247,12.247,12.247h82.483v42.892H357.059z M467.353,293.122h-64.593v-61.275h40.815L467.353,293.122z
		 M349.028,184.964H222.955v-47.093h126.074V184.964z M235.416,89.066c10.405-20.244,24.786-34.501,42.862-42.545
		c-0.235,10.672-2.585,25.614-12.004,38.653c-8.59,11.893-21.804,20.254-39.404,24.965
		C228.784,103.956,231.532,96.621,235.416,89.066z M185.724,102.878h2.075c5.825,0,10.565,4.695,10.653,10.499h-23.384
		C175.158,107.573,179.9,102.878,185.724,102.878z M95.307,46.551c18.048,8.049,32.406,22.296,42.799,42.516
		c3.883,7.555,6.632,14.89,8.546,21.073c-17.514-4.687-30.682-12.988-39.274-24.786C97.947,72.402,95.571,57.322,95.307,46.551z
		 M24.493,137.871h126.074v47.093H24.493V137.871z M150.567,209.457v151.051H40.957V209.457L150.567,209.457L150.567,209.457z
		 M33.234,385.004h45.101c-4.455,5.423-8.061,11.563-10.647,18.208H33.234V385.004z M130.027,469.779
		c-23.373,0-42.387-19.015-42.387-42.388s19.014-42.387,42.387-42.387s42.387,19.014,42.387,42.387S153.4,469.779,130.027,469.779z
		 M406.729,469.918c-23.373,0-42.387-19.046-42.387-42.457c0-23.411,19.014-42.457,42.387-42.457
		c23.373,0,42.387,19.046,42.387,42.457C449.116,450.872,430.101,469.918,406.729,469.918z M487.507,403.212h-18.456
		c-2.59-6.646-6.196-12.786-10.65-18.208h26.842c0.02,0,0.039-0.002,0.059-0.002h2.204L487.507,403.212L487.507,403.212z"/>
	<circle style="fill:#333333;" cx="130.023" cy="427.397" r="12.247"/>
	<circle style="fill:#333333;" cx="406.725" cy="427.397" r="12.247"/>
</g>
<circle style="fill:#F9A493;" cx="326.215" cy="160.811" r="12.247"/>
<g>
</g>
<g>
</g>
<g>
</g>
<g>
</g>
<g>
</g>
<g>
</g>
<g>
</g>
<g>
</g>
<g>
</g>
<g>
</g>
<g>
</g>
<g>
</g>
<g>
</g>
<g>
</g>
<g>
</g>
</svg>
